<svg viewBox="-2.7162162162161962 0 400.64189189189193 531.3749999999999" fill="none" xmlns="http://www.w3.org/2000/svg" xmlns:xlink="http://www.w3.org/1999/xlink" overflow="visible" width="400.64189189189193px" height="531.3749999999999px"><g id="Master/Composition/Plants"><g id="Succulents 2" opacity="0.699219"><mask id="mask0_410_6485f0a937fb-61c4-4e02-8ba1-e3e267664d58" style="mask-type:luminance" maskUnits="userSpaceOnUse" x="262" y="250" width="140" height="266" fill="#ffffff"><rect id="Mask" x="262" y="250" width="140" height="266" fill="#ffffff"/></mask><g mask="url(#mask0_410_6485f0a937fb-61c4-4e02-8ba1-e3e267664d58)"><g id="Succulents 2_2"><g id="Succulents"><path id="Thi Succs!" fill-rule="evenodd" clip-rule="evenodd" d="M274.972 250.306C287.962 281.133 310.043 302.553 321.738 334.607C328.673 353.616 331.564 374.285 331.739 395.453C331.835 406.951 331.634 418.456 331.58 429.954C331.528 441.167 331.223 452.308 330.27 463.448C329.312 474.648 328.24 485.715 327.767 496.984C327.399 505.764 327.231 515.977 324.251 523.987C321.881 530.356 315.858 531.289 314.26 523.564C313.372 519.27 313.484 514.475 313.582 510.062C313.707 504.399 314.037 498.745 314.205 493.084C314.881 470.366 314.005 447.643 314.463 424.916C314.91 402.71 317.768 380.529 314.606 358.472C311.995 340.257 305.361 324.616 297.737 309.621C290.403 295.195 282.42 281.119 277.463 264.709C276.04 259.996 274.94 255.112 274.412 250.044C274.642 249.937 274.829 250.024 274.972 250.306Z" fill="#1C9126"/><path id="Thi Succs!_2" fill-rule="evenodd" clip-rule="evenodd" d="M271.432 311.125C274.004 312.98 275.441 315.694 277.18 318.371C279.342 321.7 281.884 324.705 284.045 328.036C288.552 334.981 292.512 342.353 296.62 349.579C304.42 363.296 310.342 377.915 313.275 393.783C316.316 410.228 317.135 427.202 318.411 443.893C319.763 461.583 321.126 479.401 321.305 497.159C321.385 505.115 321.815 513.561 320.859 521.461C320.264 526.379 318.041 530.571 313.031 530.531C302.39 530.447 297.393 518.674 295.306 509.019C292.234 494.803 291.62 479.702 292.107 465.163C292.695 447.632 295.741 430.365 297.059 412.902C298.456 394.415 297.667 376.254 291.303 358.847C288.088 350.051 284.357 341.465 281.006 332.727C279.579 329.007 278.411 325.185 276.484 321.721C274.34 317.867 271.679 314.369 270 310.219C270.477 310.521 270.955 310.823 271.432 311.125Z" fill="#28AA4D"/><path id="Thi Succs!_3" fill-rule="evenodd" clip-rule="evenodd" d="M394.021 274.367C394.347 274.078 394.674 273.789 395 273.5C394.06 278.007 392.362 281.669 391.065 285.789C389.898 289.493 389.307 293.685 388.521 297.734C386.677 307.244 384.545 316.539 382.802 326.129C379.353 345.107 380.005 365.552 382.267 386.607C384.404 406.497 387.783 426.355 389.393 446.24C390.728 462.731 391.301 479.736 390.028 495.47C389.163 506.156 386.327 518.914 378.6 517.836C374.962 517.328 373.065 512.344 372.3 506.718C371.072 497.681 370.815 488.18 370.336 479.194C369.268 459.137 369.055 439.141 368.844 419.29C368.645 400.561 368.095 381.461 369.194 363.204C370.255 345.586 373.571 329.712 378.313 315.064C380.811 307.347 383.191 299.45 385.997 292.095C387.343 288.567 388.987 285.45 390.333 281.925C391.416 279.09 392.277 276.18 394.021 274.367Z" fill="#43D26C"/><path id="Thi Succs!_4" fill-rule="evenodd" clip-rule="evenodd" d="M274.719 362.068C276.126 359.709 279.223 367.49 279.695 368.469C279.496 367.982 279.295 367.496 279.093 367.01C281.887 371.649 284.442 376.478 286.031 381.797C287.603 387.062 288.953 392.434 290.428 397.737C293.196 407.686 296.767 417.353 299.275 427.392C301.718 437.175 302.334 446.792 301.743 456.91C301.128 467.427 300.752 478.105 301.469 488.616C301.812 493.636 303.445 498.312 304.564 503.145C305.685 507.983 306.568 512.885 307.893 517.663C308.197 517.041 308.236 519.122 308.235 519.28C308.227 520.473 308.06 521.474 307.675 522.606C306.687 525.516 304.839 527.989 302.026 528.792C296.943 530.242 292.224 525.624 290.585 520.748C288.233 513.751 286.937 506.019 285.817 498.665C284.789 491.922 284.546 485.138 284.851 478.302C285.453 464.82 287.895 451.515 288.556 438.038C289.275 423.365 286.365 409.579 283.928 395.296C282.754 388.414 281.632 381.597 279.347 375.04C278.422 372.385 277.217 370.042 275.952 367.59C275.233 366.195 273.778 363.707 274.719 362.068Z" fill="#1C9126"/><path id="Thi Succs!_5" fill-rule="evenodd" clip-rule="evenodd" d="M315.959 339.149C315.376 355.958 314.371 372.64 312.127 389.273C309.837 406.246 307.206 423.161 305.003 440.15C302.858 456.686 300.61 473.497 300.909 490.265C301.13 502.615 299.08 523.509 312.814 529.604C326.724 535.777 329.707 509.416 330.621 500.714C332.371 484.02 331.804 467.15 330.955 450.365C330.083 433.138 328.627 415.998 326.823 398.834C324.819 379.768 323.246 360.617 321.984 341.497C321.36 332.04 321.206 322.598 321.379 313.139C321.541 304.213 321.202 295.194 318.024 286.719C317.858 286.839 317.692 286.96 317.526 287.08" fill="#43D26C"/><path id="Thi Succs!_6" fill-rule="evenodd" clip-rule="evenodd" d="M382.769 407.747C380.267 411.386 377.746 414.991 375.383 418.846C371.156 425.744 367.334 433.415 366.184 443.278C363.777 463.919 365.708 486.213 366.174 507.486C366.269 511.833 365.719 516.049 367.434 520.186C368.99 523.938 371.898 526.796 374.67 526.781C380.604 526.747 379.699 512.234 379.708 505.845C379.726 494.649 378.469 483.339 378.577 472.152C378.686 461.07 379.36 449.957 380.969 439.432C382.598 428.778 384.983 418.548 388.131 409.002C388.568 407.677 391.703 397.439 388.741 399.204" fill="#1C9126"/><path id="Thi Succs!_7" fill-rule="evenodd" clip-rule="evenodd" d="M361.562 282.312C357.661 282.312 357.685 301.738 357.567 304.233C357.143 313.238 357.243 322.244 356.975 331.25C356.388 350.904 355.667 370.731 352.711 390.157C351.12 400.616 349.275 411.027 347.29 421.406C345.3 431.815 342.628 442.211 341.319 452.751C340.061 462.884 340.772 473.217 340.944 483.399C341.117 493.644 341.427 503.909 342.77 514.063C343.102 516.57 343.491 519.067 343.907 521.559C344.253 523.635 344.051 526.209 344.638 528.182C345.578 531.342 349.607 532.377 352.321 531.883C359.663 530.544 364.352 521.337 366.86 514.609C370.063 506.02 371.763 496.702 373.44 487.65C375.34 477.394 376.454 466.981 376.976 456.54C378.038 435.32 376.675 414.077 375.153 392.924C374.306 381.16 373.329 369.448 371.832 357.757C370.342 346.116 368.43 334.527 367.185 322.852C366.281 314.367 365.39 305.871 364.804 297.354C364.664 295.324 364.546 282.312 361.562 282.312" fill="#28AA4D"/><path id="Thi Succs!_8" fill-rule="evenodd" clip-rule="evenodd" d="M356.677 423.516C356.041 403.121 347.833 313.537 345.965 288.874C345.498 282.7 341.002 256.998 340.419 250C338.837 251.978 338.972 282.767 338.99 289.842C339.008 296.84 338.139 303.722 337.692 310.682C337.237 317.784 326.724 409.508 325.359 416.332C322.645 429.908 320.829 443.84 319.428 457.722C318.063 471.252 315.941 485.526 317.767 499.127C318.187 502.258 318.852 505.339 319.933 508.215C321.102 511.323 321.903 514.197 322.841 517.449C324.35 522.687 327.08 527.285 331.276 529.447C339.878 533.881 344.497 523.844 346.839 515.105C350.578 501.149 352.979 486.965 354.104 472.308C355.349 456.092 357.187 439.844 356.677 423.516" fill="#1C9126"/></g></g></g></g><g id="Group" opacity="0.4"><path id="Leaf Me Alone!" fill-rule="evenodd" clip-rule="evenodd" d="M151.976 241.453C166.041 240.399 181.748 251.932 188.532 263.933C194.001 273.609 193.08 286.315 189.702 296.595C187.44 303.477 182.503 313.29 174.27 313.385C163.969 313.505 163.472 300.566 163.273 293.001C163.008 282.945 161.758 274.184 153.961 267.329C152.999 266.483 151.989 265.691 150.979 264.899C150.082 264.196 149.186 263.493 148.323 262.753C148.185 262.634 148.046 262.516 147.907 262.397C145.15 260.042 142.254 257.569 141.902 253.687C141.391 248.061 144.515 247.048 149.286 248.094C149.44 248.127 149.858 248.288 150.426 248.507C152.863 249.446 158.061 251.449 157.078 249.054C156.708 248.152 155.355 247.438 153.648 246.902C149.231 246.414 143.963 245.847 142.448 246.186C126.103 249.83 119.74 272.841 118.05 287.461C117.861 289.098 117.709 290.741 117.577 292.386H114.579C114.788 288.497 115.062 284.615 115.702 280.77C118.111 266.288 125.643 245.019 142.162 242.668C142.772 242.581 145.013 242.566 147.729 242.728C149.016 241.997 150.457 241.555 151.976 241.453Z" fill="#28AA4D"/><path id="Leaf Me Alone!_2" fill-rule="evenodd" clip-rule="evenodd" d="M74.5023 131.556C75.335 140.011 75.0771 148.441 76.3658 156.883C77.3964 163.63 79.5759 170.107 82.5484 176.252C85.4067 182.162 91.3359 187.193 92.878 193.506C93.8608 197.529 93.3106 203.188 91.9552 207.123C90.3068 211.907 91.1829 211.529 94.4674 215.543C100.904 223.41 106.699 231.478 110.797 240.873C116.7 254.407 120.571 270.226 118.38 285.04C118.101 286.921 117.771 293.672 115.17 294.144C115.17 294.144 115.645 274.649 114.453 266.567C109.854 235.384 87.3987 214.838 72.7771 188.371C71.9733 187.007 70.2764 183.757 69.0966 181.613C67.2339 178.227 65.3613 171.786 62.8397 169.276C61.001 167.445 60.5287 167.748 60.6941 168.913C60.9558 170.756 62.815 174.757 63.3821 175.869C64.5521 178.164 65.8392 180.604 67.0382 182.616C72.524 191.94 78.6473 202.118 84.313 211.729C59.8092 217.291 42.5521 187.944 35.9764 168.65C30.5586 152.753 24.0763 115.587 49.3217 114.227C60.067 113.672 73.3558 119.92 74.5023 131.556Z" fill="#28AA4D"/><path id="Leaf Me Alone!_3" fill-rule="evenodd" clip-rule="evenodd" d="M185.248 61.7898C172.223 65.8533 163.561 76.3331 159.11 90.0302C156.199 98.9878 155.865 108.19 154.247 117.395C151.813 131.245 146.577 141.74 136.344 151.607C133.174 154.663 130.839 157.801 129.178 161.157C125.882 164.509 123.013 168.301 120.905 172.938C118.212 178.86 117.45 185.965 120.559 191.869C121.395 193.456 123.48 196.642 125.642 198.089C117.55 215.26 113.101 234.066 113.603 252.848C113.906 264.186 114.461 386.856 115.109 398.18C115.284 401.22 116.277 406.241 117.77 401.142C119.136 396.478 117.423 277.829 117.264 272.956C116.493 249.219 115.834 227.636 125.64 205.458C126.669 203.134 127.759 200.828 128.894 198.541C128.961 198.502 129.023 198.456 129.086 198.411C129.129 198.444 129.168 198.48 129.212 198.512C129.284 198.384 129.383 198.23 129.499 198.059C129.825 197.724 130.109 197.301 130.38 196.828C131.25 195.627 132.234 194.216 132.239 193.444C132.239 193.438 132.236 193.428 132.236 193.422C138.307 183.548 145.26 174.218 152.362 165.07C152.309 165.137 160.066 154.613 158.867 160.433C158.289 163.237 152.583 168.578 150.278 171.549C145.181 178.159 139.194 186.533 134.22 194.631C133.551 195.014 132.605 196.896 131.921 198.298C131.543 199.008 131.191 199.724 130.845 200.348C148.471 206.151 162.182 194.462 171.532 180.867C171.543 180.851 171.553 180.834 171.564 180.818C174.409 177.062 177.323 173.332 180.964 170.362C187.039 165.407 193.545 164.533 200.707 162.094C220.239 155.444 228.544 130.221 231.181 111.505C234.157 90.3909 219.601 58.0137 194.189 60.0956C191.009 60.3471 188.029 60.9222 185.248 61.7898Z" fill="#1C9126"/><path id="Leaf Me Alone!_4" fill-rule="evenodd" clip-rule="evenodd" d="M158.218 2.12858C139.496 21.2785 130.451 47.8397 123.289 72.81C115.29 100.699 110.006 129.019 109.803 158.015C109.67 177.066 109.143 196.235 110.274 215.264C110.676 222.022 111.361 228.792 112.451 235.477C112.541 236.026 114.979 250.953 117.313 247.475C118.639 245.497 114.813 231.99 114.524 229.741C112.897 217.07 112.519 204.306 112.599 191.543C112.729 170.53 112.099 149.625 114.266 128.69C114.589 125.564 114.845 122.281 115.6 119.223C116.402 115.972 115.381 117.391 117.993 116.104C120.532 114.853 123.669 115.032 126.303 113.462C136.752 107.235 142.097 91.241 146.257 80.7466C151.015 68.7457 153.907 55.9485 156.216 43.3193C157.912 34.0402 159.125 24.8176 159.811 15.4192C160.027 12.4571 160.04 9.35954 160.633 6.44701C160.792 5.66137 161.593 4.27157 161.564 3.57581C161.502 2.10332 160.598 1.23731 160.524 0C159.74 0.69316 158.971 1.4032 158.218 2.12858" fill="#43D26C"/></g><g id="Character"><g id="Head/Front" transform="translate(101.859 134.148) scale(1.1015625 1.1043955729557917)"><g id="Head/Front/Rad"><g id="Head"><path id="SKIN" fill-rule="evenodd" clip-rule="evenodd" d="M73.9354 75.2443C80.411 79.1475 86.7736 81.0333 89.7603 80.2635C97.2496 78.333 97.9382 50.9351 92.1433 40.1339C86.3485 29.3328 56.5583 24.625 55.0568 46.0255C54.5356 53.4529 57.6544 60.0814 62.2623 65.4901L54 104H78L73.9354 75.2443Z" fill="#d4a181"/></g><path id="hair" fill-rule="evenodd" clip-rule="evenodd" d="M44.5934 38.9017C43.8182 38.1335 43.3954 37.0371 43.0296 35.9959C42.6497 34.9144 42.2806 33.8217 42.0284 32.696C41.5245 30.4468 41.5197 27.8602 43.1243 26.1136C44.4111 24.7131 46.342 24.0849 48.124 23.9484C49.3113 23.8573 50.5306 24.0236 51.6687 24.3978C52.7979 24.7689 53.7713 25.5086 54.8659 25.9678C54.9077 23.5439 55.3229 21.0077 56.5526 18.9381C57.7359 16.9468 59.6225 15.8293 61.771 15.5337C63.9762 15.2303 66.1539 15.7463 68.1281 16.8139C68.6223 17.0813 69.112 17.3614 69.5806 17.6784C69.973 17.9439 70.3809 18.2636 70.8413 18.3716C71.3545 18.4921 71.6089 18.1957 71.9425 17.8212C72.3336 17.3822 72.7742 16.9955 73.2404 16.6527C75.3022 15.1373 78.0073 14.5142 80.3959 15.4225C81.4964 15.8411 82.5666 16.5518 83.3132 17.5313C83.9788 18.4043 84.4536 19.7892 85.3721 20.3975C85.7619 20.6557 86.0372 20.3136 86.3921 20.0608C86.9253 19.6809 87.4337 19.2617 87.9732 18.8921C88.7311 18.3729 89.5517 17.9845 90.4304 17.7812C91.7168 17.4836 93.4945 17.5534 93.8623 19.2382C94.0003 19.871 93.8945 20.5479 93.8499 21.1855C93.7886 22.0611 93.7248 22.9363 93.6487 23.8106C93.591 24.4744 93.518 25.1155 93.3928 25.7674C93.3259 26.1148 93.1168 26.7626 93.2658 27.1106C93.452 27.5455 94.3114 27.2982 94.6786 27.3134C95.4038 27.3433 96.132 27.4705 96.8026 27.7804C97.3222 28.0206 97.8686 28.3738 98.0879 28.9694C98.2228 29.3353 98.1872 29.7112 98.1235 30.0876C98.0472 30.5393 98.1345 30.779 98.1916 31.2348C99.1656 30.7552 102.541 29.6896 102.965 31.4351C103.107 32.0163 102.785 32.673 102.539 33.1632C102.108 34.0229 101.543 34.8087 100.966 35.5581C99.7614 37.1214 98.3234 38.4698 96.7761 39.623C98.5889 40.4289 99.0621 42.806 97.4926 44.2223C96.7996 44.8476 95.8679 44.9868 94.9938 44.9468C94.6738 44.9321 94.2126 44.8092 93.9609 44.8649C93.8254 44.8948 93.6803 45.0097 93.4926 45.0225C92.259 45.107 90.8664 44.8098 89.6605 44.536C87.5117 44.0482 85.4773 43.0302 83.8161 41.4797C83.3899 41.082 83.0379 40.853 82.4643 40.8589C81.9616 40.864 81.4685 41.0018 80.9663 41.0145C79.6376 41.0484 78.4395 40.3989 77.2057 39.9665C77.1301 41.6333 76.6555 43.4691 75.9736 44.9687C75.4176 46.1915 74.2565 46.3692 73.1155 46.4765C69.467 46.8198 65.8056 46.4367 62.1524 46.4417C65.6888 47.2411 69.343 47.5705 72.848 48.5112C74.4323 48.9363 73.2225 50.004 72.5451 50.7443C71.4296 51.9632 70.6002 53.4735 70.025 55.0646C68.295 52.8096 65.2373 51.3238 62.5283 52.0165C59.5351 52.7818 57.4274 56.8296 59.3415 59.7397C60.4527 61.429 62.4594 62.0811 64.1291 62.8069C62.8265 64.1612 62.5115 66.1614 61.7275 67.8462C61.3408 68.6771 60.798 69.6165 59.9333 69.9061C59.6134 70.0132 59.2382 70.0224 58.9858 70.2832C58.6731 70.6061 58.5987 70.9671 58.1994 71.2446C56.6062 72.3523 54.1174 72.2669 52.7052 70.8214C51.4281 69.5141 51.7604 67.4454 52.827 66.12C51.1292 65.4123 48.036 64.5021 48.7108 61.8571C45.0319 61.6128 36.0996 55.6462 41.0372 51.2863C38.3274 49.7548 35.8379 46.012 37.5785 42.7127C38.9188 40.1721 42.0359 39.0364 44.5934 38.9017" fill="#b58143"/></g></g><g id="Lower Body/Sitting" transform="translate(11.5312 340.67) scale(1.1015625 1.1043956549097804)"><g id="Lower Body/Sitting/Baggy Pants"><g id="Seat"><path id="Seat_2" fill-rule="evenodd" clip-rule="evenodd" d="M69 42C60.1634 42 53 49.1634 53 58V150C53 158.837 60.1634 166 69 166H184C192.837 166 200 158.837 200 150V58C200 49.1634 192.837 42 184 42H69ZM85 70C82.7909 70 81 71.7909 81 74V134C81 136.209 82.7909 138 85 138H168C170.209 138 172 136.209 172 134V74C172 71.7909 170.209 70 168 70H85Z" fill="#C5CFD6"/></g><path id="SKIN" fill-rule="evenodd" clip-rule="evenodd" d="M299.159 161C279.443 136.924 266.103 119.075 259.138 107.454C247.213 87.5547 237.453 69.8482 234.373 63.0844C227.028 46.9552 251.282 39.4026 256.771 46.9258C265.079 58.3124 282.822 94.143 310 154.417L299.159 161Z" fill="#d4a181"/><path id="LegLower" fill-rule="evenodd" clip-rule="evenodd" d="M258.758 154L222.065 61.6368C214.217 44.7996 252.116 33.7321 257.883 41.5678C270.977 59.3572 302.099 129.534 306 134.834L258.758 154Z" fill="#56919c"/><path id="SKIN" fill-rule="evenodd" clip-rule="evenodd" d="M161.033 135.477C168.181 125.051 194.179 89.9744 208.339 75.4611C212.408 71.2905 216.379 67.2876 220.134 63.5574C231.296 52.4698 253.524 71.1057 242.382 81.2046C214.635 106.355 174.151 140.307 170.769 143.334C166.028 147.577 156.541 142.029 161.033 135.477Z" fill="#d4a181"/><g id="Left [shoe]"><path id="shoe" fill-rule="evenodd" clip-rule="evenodd" d="M165.664 131.185C164.971 130.241 163.63 130.017 162.734 130.771C161.099 132.146 158.748 134.264 157.899 135.734C156.547 138.076 154.733 143.021 154.733 143.021C157.45 144.59 203.578 171.222 203.578 171.222C203.578 171.222 209.116 166.027 205.304 163.157C201.491 160.286 199.012 158.315 199.012 158.315L182.152 135.087C181.821 134.631 181.179 134.538 180.733 134.882L177.23 137.579C177.23 137.579 172.409 137.159 170.035 135.788C168.589 134.953 166.824 132.767 165.664 131.185Z" fill="#E4E4E4"/></g><g id="Right [shoe]"><path id="shoe_2" fill-rule="evenodd" clip-rule="evenodd" d="M293.45 156.284C292.378 155.813 291.104 156.29 290.705 157.391C289.977 159.398 289 162.409 289 164.106C289 166.811 289.901 172 289.901 172C293.039 172 346.303 172 346.303 172C346.303 172 348.502 164.732 343.765 164.152C339.028 163.573 335.895 163.106 335.895 163.106L309.68 151.419C309.165 151.189 308.563 151.43 308.348 151.951L306.663 156.039C306.663 156.039 302.278 158.085 299.537 158.085C297.868 158.085 295.246 157.074 293.45 156.284Z" fill="#E4E4E4"/></g><path id="Leg and Butt" fill-rule="evenodd" clip-rule="evenodd" d="M208.862 66.2501C208.862 66.2501 163.117 58.7976 147.58 56.0581C118.057 50.8524 109.448 34.9653 114.538 0.302229L168.934 0.302229C179.732 3.42038 259.167 38.8717 259.167 38.8717C268.695 43.6015 266.921 57.5475 265.18 62.1421C265.073 62.4232 216.992 144.713 216.992 144.713L172.494 116.365L208.946 69.5904C208.946 69.5904 210.39 66.682 208.862 66.2501Z" fill="#89c5cc"/></g></g><g id="Upper Body" transform="translate(35.7656 224.709) scale(1.1015625 1.1043955757018717)"><g id="Upper Body/Pointing Forward"><path id="SKIN" fill-rule="evenodd" clip-rule="evenodd" d="M193.348 23.6899L158.638 42.7003L171.456 56.4577L196.677 33.3653C209.963 29.7037 216.039 27.0251 214.904 25.3294C213.948 23.8997 212.405 23.9494 210.985 23.9951C209.878 24.0307 208.845 24.064 208.22 23.3937C206.794 21.8628 209.515 16.5104 212.315 11.5416C215.114 6.57269 212.121 7.00525 210.409 7.7199C204.807 11.5123 199.12 16.8356 193.348 23.6899ZM228.246 50.3643L213 58.7399L213.868 74.0403C213.868 74.0403 223.743 66.9131 232.238 64.5444C243.07 61.5241 247.453 59.2177 252.746 52.4731C255.578 48.8645 257.982 41.6102 255.286 39.2477C254.252 38.3414 250.399 40.4824 246.468 42.667C243.472 44.3319 240.43 46.022 238.556 46.4078C236.034 46.9272 236.329 43.6574 236.565 41.0446C236.734 39.1697 236.873 37.633 235.918 38.0773C231.455 38.1538 228.246 50.3643 228.246 50.3643Z" fill="#ba8b72"/><g id="Group 3"><path id="Mask" fill-rule="evenodd" clip-rule="evenodd" d="M141.734 38.4654C153.892 38.337 170.104 35.7692 187.403 24.7888L194.196 39.9387C182.264 51.7804 165.486 61.5097 150.816 61.0977C139.255 60.7731 133.347 46.7892 141.734 38.4654Z" fill="#c21b15"/><mask id="mask0_410_5849f12fc37b-e2bd-4312-a182-d9076f6ed1df" style="mask-type:luminance" maskUnits="userSpaceOnUse" x="137" y="24" width="58" height="38" fill="#ffffff"><path id="Mask" fill-rule="evenodd" clip-rule="evenodd" d="M141.734 38.4654C153.892 38.337 170.104 35.7692 187.403 24.7888L194.196 39.9387C182.264 51.7804 165.486 61.5097 150.816 61.0977C139.255 60.7731 133.347 46.7892 141.734 38.4654Z" fill="#ffffff"/></mask><g mask="url(#mask0_410_5849f12fc37b-e2bd-4312-a182-d9076f6ed1df)"/></g><g id="Group 27"><path id="Mask" fill-rule="evenodd" clip-rule="evenodd" d="M108.945 142.259C97.3866 140.752 86.7664 139.367 80.4728 140.606C73.4113 117.673 79.2749 103.234 84.6879 89.9046C87.9502 81.871 91.0489 74.2405 91.0555 65.3966C91.0748 39.6422 111.754 0 114.797 0H115.67H139.783H142.544C143.784 15.9374 149.079 33.193 154.407 50.5596C155.652 54.6153 156.898 58.6769 158.095 62.7293C178.26 67.3065 223.036 51.3734 223.036 51.3734C223.036 51.3734 234.34 74.7586 233.487 84.7171C207.424 98.331 185.087 104.401 166.683 104.802C167.268 115.721 165.939 126.112 161.474 135.606C155.491 148.327 130.576 145.079 108.945 142.259Z" fill="#ff4133"/><mask id="mask1_410_5849f12fc37b-e2bd-4312-a182-d9076f6ed1df" style="mask-type:luminance" maskUnits="userSpaceOnUse" x="77" y="0" width="157" height="145" fill="#ffffff"><path id="Mask_2" fill-rule="evenodd" clip-rule="evenodd" d="M108.945 142.259C97.3866 140.752 86.7664 139.367 80.4728 140.606C73.4113 117.673 79.2749 103.234 84.6879 89.9046C87.9502 81.871 91.0489 74.2405 91.0555 65.3966C91.0748 39.6422 111.754 0 114.797 0H115.67H139.783H142.544C143.784 15.9374 149.079 33.193 154.407 50.5596C155.652 54.6153 156.898 58.6769 158.095 62.7293C178.26 67.3065 223.036 51.3734 223.036 51.3734C223.036 51.3734 234.34 74.7586 233.487 84.7171C207.424 98.331 185.087 104.401 166.683 104.802C167.268 115.721 165.939 126.112 161.474 135.606C155.491 148.327 130.576 145.079 108.945 142.259Z" fill="#ffffff"/></mask><g mask="url(#mask1_410_5849f12fc37b-e2bd-4312-a182-d9076f6ed1df)"/></g></g></g></g><g id="Big Leaf Plant" clip-path="url(#clip0_410_6485f0a937fb-61c4-4e02-8ba1-e3e267664d58)"><mask id="mask1_410_6485f0a937fb-61c4-4e02-8ba1-e3e267664d58" style="mask-type:luminance" maskUnits="userSpaceOnUse" x="0" y="354" width="127" height="170" fill="#ffffff"><rect id="Mask_2" y="354" width="127" height="170" fill="#ffffff"/></mask><g mask="url(#mask1_410_6485f0a937fb-61c4-4e02-8ba1-e3e267664d58)"><g id="Big Leaf Plant_2"><g id="Big Ass Leaf"><path id="leaf" fill-rule="evenodd" clip-rule="evenodd" d="M44.4793 354.091C47.1422 353.766 49.9842 353.88 52.4606 354.932C57.7264 357.169 59.2232 363.393 59.1509 368.452C59.0731 373.897 57.9174 379.844 62.055 384.232C63.957 386.249 66.3229 387.792 68.1905 389.846C70.1861 392.041 71.7519 394.553 72.9113 397.25C75.04 402.204 76.0849 408.029 74.1382 413.226C72.4243 417.801 68.1121 421.931 69.0439 427.134C70.0158 432.561 75.4847 436.71 78.9039 440.753C82.7735 445.327 86.3363 451.174 86.9216 457.174C87.4828 462.923 84.9814 468.738 81.1426 473.084C73.4727 481.769 61.9435 486.026 50.3186 486C45.383 485.988 39.7948 485.765 35.5355 483.112C34.2191 482.291 33.5246 481.371 32.7421 480.092C32.0404 478.945 31.1135 478.199 30.0407 477.387C27.6836 475.604 25.9815 473.201 24.8952 470.511C20.6768 460.064 24.0483 447.139 29.9531 437.862C31.3522 435.664 32.4977 433.549 31.818 430.929C31.1087 428.194 29.3654 425.728 27.8234 423.377C26.2998 421.054 24.5603 418.837 23.3694 416.325C22.1221 413.694 21.7709 410.938 21.9913 408.058C22.4054 402.648 24.7396 397.656 28.0441 393.305C31.2271 389.114 34.9643 385.105 34.9727 379.613C34.9819 373.794 31.0932 368.617 32.7499 362.7C33.4358 360.25 34.8136 357.736 37.034 356.267C39.1634 354.858 41.975 354.397 44.4793 354.091Z" fill="#1C9126"/><path id="middle thing" fill-rule="evenodd" clip-rule="evenodd" d="M42.7395 363.395C42.7894 362.613 43.7161 362.144 44.4456 362.348C45.4058 362.617 45.3873 363.515 45.362 364.314C45.2843 366.773 45.6399 369.162 46.2305 371.547C47.458 376.506 49.7267 381.075 51.524 385.839C53.3198 390.598 54.1627 395.513 53.1093 400.549C52.1162 405.298 50.556 409.923 49.5396 414.678C48.6438 418.869 47.6906 423.288 49.0548 427.468C50.3675 431.491 53.2698 434.768 55.3597 438.404C59.686 445.931 61.6053 454.281 61.8621 462.874C61.981 466.864 61.8739 470.891 60.9487 474.805C60.4162 477.058 59.7006 480.104 57.7705 481.659C56.8805 482.377 55.3584 482.625 54.6093 481.563C53.906 480.566 54.523 479.023 54.7463 477.961C55.7131 473.363 55.9076 468.665 55.6762 463.996C55.4521 459.474 54.9181 454.959 53.4956 450.641C52.1754 446.633 50.1697 443.033 47.8091 439.527C45.4036 435.954 42.903 432.373 41.909 428.14C40.8992 423.84 41.7196 419.465 42.8166 415.247C43.9767 410.786 45.4962 406.453 47.0672 402.112C48.5981 397.883 49.1407 393.882 48.2956 389.455C46.6261 380.71 42.1572 372.502 42.7395 363.395Z" fill="black" fill-opacity="0.2"/></g><g id="Big Ass Leaf_2"><path id="leaf_2" fill-rule="evenodd" clip-rule="evenodd" d="M114.775 364.476C118.081 365.48 121.365 367.101 123.721 369.641C128.733 375.044 127.195 383.209 124.429 389.173C121.451 395.591 116.938 402.044 119.482 409.408C120.651 412.794 122.617 415.861 123.727 419.273C124.912 422.918 125.423 426.715 125.358 430.52C125.237 437.508 123.379 444.965 118.334 450.113C113.891 454.646 106.628 457.294 104.967 463.952C103.234 470.898 107.47 478.676 109.351 485.257C111.48 492.704 112.574 501.501 110.083 508.923C107.696 516.037 101.67 521.629 94.8484 524.781C81.219 531.079 65.3944 530.11 51.7278 524.009C45.9255 521.418 39.4674 518.236 35.8615 512.864C34.7471 511.204 34.4176 509.749 34.1747 507.823C33.957 506.096 33.2618 504.727 32.4295 503.204C30.6006 499.858 29.8711 496.119 30.0184 492.361C30.5918 477.765 41.4102 464.192 53.2765 456.27C56.0881 454.393 58.5573 452.482 59.1461 449.019C59.7609 445.404 59.0168 441.568 58.4482 437.974C57.8866 434.422 57.0143 430.885 56.9444 427.283C56.8714 423.51 57.9187 420.057 59.7046 416.756C63.0595 410.554 68.4525 405.851 74.6476 402.415C80.6146 399.105 87.1382 396.3 90.0587 389.79C93.1543 382.891 91.3221 374.719 96.4079 368.564C98.5139 366.016 101.468 363.753 104.859 363.17C108.112 362.611 111.665 363.532 114.775 364.476Z" fill="#28AA4D"/><path id="middle thing_2" fill-rule="evenodd" clip-rule="evenodd" d="M108.021 375.885C108.49 374.983 109.823 374.913 110.572 375.539C111.558 376.364 111.065 377.42 110.615 378.357C109.232 381.236 108.395 384.261 107.835 387.406C106.671 393.942 106.933 400.563 106.54 407.168C106.147 413.766 104.555 420.048 100.674 425.476C97.0144 430.595 92.7545 435.269 89.065 440.382C85.8131 444.889 82.3737 449.637 81.779 455.32C81.206 460.79 82.8901 466.21 83.4323 471.628C84.555 482.845 82.4213 493.774 78.2094 504.117C76.2533 508.92 74.0126 513.647 70.8717 517.809C69.0634 520.206 66.6243 523.448 63.5429 524.28C62.1219 524.665 60.2057 524.159 59.8849 522.502C59.5832 520.949 61.1173 519.441 61.937 518.296C65.4862 513.343 68.1822 507.864 70.3626 502.196C72.4747 496.706 74.2193 491.063 74.8186 485.184C75.3747 479.728 74.9122 474.397 73.9841 468.99C73.0385 463.48 71.9851 457.912 73.0425 452.36C74.116 446.721 77.3764 441.955 80.8785 437.522C84.5826 432.832 88.6411 428.484 92.7637 424.155C96.781 419.936 99.5193 415.468 100.853 409.765C103.487 398.499 102.555 386.397 108.021 375.885Z" fill="black" fill-opacity="0.2"/></g><g id="Big Ass Leaf_3"><path id="leaf_3" fill-rule="evenodd" clip-rule="evenodd" d="M12.3555 406C17.8288 406 22.6407 408.903 25.9564 413.022C29.8378 417.845 30.6217 423.734 32.1978 429.481C32.982 432.341 34.3309 435.181 36.6947 437.124C38.8447 438.891 41.5741 439.245 44.1475 440.108C49.2906 441.834 53.4436 445.991 55.0837 451.063C57.0847 457.249 54.9653 463.489 55.3302 469.759C55.6652 475.517 61.3392 479.109 65.9043 481.869C70.4057 484.591 74.4609 487.139 75.8166 492.442C77.2543 498.066 77.7366 504.343 75.7454 509.898C72.43 519.149 62.7273 523.222 53.352 523.854C44.8437 524.427 34.1453 523.527 27.7556 517.347C23.9321 513.649 22.5474 508.477 22.7192 503.331C22.826 500.132 23.4594 496.962 24.2784 493.869C24.8589 491.678 25.6432 489.496 25.8666 487.231C26.4605 481.206 20.8953 480.049 16.1581 478.395C10.1384 476.292 5.92417 472.321 2.99371 466.789C0.264645 461.638 -0.88041 455.856 0.75558 450.184C1.59113 447.288 3.10663 444.661 5.16194 442.426C6.0667 441.443 7.34189 440.622 8.1585 439.589C8.92073 438.624 8.75479 437.374 8.49211 436.243C7.27751 431.022 3.49325 426.699 2.13991 421.487C0.918077 416.783 1.64036 410.928 5.93863 407.893C7.79564 406.582 10.0858 406.014 12.3555 406Z" fill="#43D26C"/><path id="middle thing_3" fill-rule="evenodd" clip-rule="evenodd" d="M19.8136 419.604C25.6147 425.787 27.1915 434.176 27.6543 442.307C27.9135 446.867 27.6437 451.676 28.9825 456.098C30.1279 459.883 32.8133 462.777 35.5813 465.512C41.1532 471.017 47.3672 476.613 48.997 484.58C49.9532 489.256 49.3078 494.085 50.6291 498.709C51.8306 502.912 53.946 507.042 56.519 510.591C58.5906 513.449 61.2897 515.638 63.5543 518.302C64.2452 519.115 65.2349 520.312 64.9498 521.461C64.6161 522.805 62.9044 523.231 61.6899 523.02C58.8584 522.527 56.4749 519.822 54.6235 517.855C51.9163 514.979 49.6158 511.886 47.746 508.416C45.6702 504.562 43.9988 500.473 43.2847 496.15C42.5436 491.665 42.9124 486.991 41.2202 482.686C38.3726 475.444 31.4657 471.169 26.4719 465.524C20.2501 458.49 21.178 449.736 21.8153 441.083C22.1654 436.328 22.5134 430.958 20.1121 426.617C19.1955 424.96 17.1518 423.415 16.7577 421.531C16.3967 419.805 18.367 418.061 19.8136 419.604Z" fill="black" fill-opacity="0.2"/></g></g></g></g></g><defs><clipPath id="clip0_410_6485f0a937fb-61c4-4e02-8ba1-e3e267664d58"><rect width="127" height="170" fill="white" transform="translate(0 354)"/></clipPath></defs></svg>