<svg viewBox="24.445945945945937 27.25 373.4797297297297 497.3125" fill="none" xmlns="http://www.w3.org/2000/svg" xmlns:xlink="http://www.w3.org/1999/xlink" overflow="visible" width="373.4797297297297px" height="497.3125px"><g id="Master/Composition/Graphs"><g id="Chart"><path id="Value" fill-rule="evenodd" clip-rule="evenodd" d="M88.6606 88.7131C86.1848 91.3311 82.6774 92.975 78.7765 92.975C71.281 92.975 65.2047 86.942 65.2047 79.5C65.2047 72.058 71.281 66.025 78.7765 66.025V41C57.4533 41 40 58.3288 40 79.5C40 100.671 57.4533 118 78.7765 118C89.9771 118 100.1 113.295 107 105.811L88.6606 88.7131Z" fill="#F2F2F2"/><path id="Value_2" fill-rule="evenodd" clip-rule="evenodd" d="M78 41V66.35C85.5387 66.35 91.65 72.4613 91.65 80H117C117 58.5539 99.4461 41 78 41Z" fill="#42A5FF"/><path id="Value_3" fill-rule="evenodd" clip-rule="evenodd" d="M91.2919 79C91.2919 83.4007 89.2194 87.3124 86 89.8381L101.838 110C111.057 102.782 117 91.5928 117 79H91.2919Z" fill="#C5CFD6"/></g><g id="Circles"><circle id="Oval 2 Copy 17" cx="359" cy="132" r="20" fill="#C1DEE2"/><circle id="Oval 2 Copy 6" cx="88.5" cy="346.5" r="13.5" fill="#89C5CC"/><circle id="Oval 2 Copy 14" cx="164.5" cy="131.5" r="13.5" fill="#56919C"/><circle id="Oval 2 Copy 10" cx="137.5" cy="326.5" r="13.5" fill="#56919C"/><circle id="Oval 2 Copy 11" cx="186.5" cy="230.5" r="18.5" fill="#C1DEE2"/><circle id="Oval 2 Copy 16" cx="325" cy="148" r="27" fill="#89C5CC"/><circle id="Oval 2 Copy 7" cx="61.5" cy="299.5" r="13.5" fill="#C1DEE2"/><circle id="Oval 2 Copy 7_2" cx="33.5" cy="359.5" r="9.5" fill="#C1DEE2"/><circle id="Oval 2 Copy 9" cx="138" cy="275" r="10" fill="#C1DEE2"/><circle id="Oval 2 Copy 12" cx="228" cy="246" r="17" fill="#C1DEE2"/><circle id="Oval 2 Copy 13" cx="235" cy="175" r="17" fill="#C1DEE2"/><circle id="Oval 2 Copy 8" cx="102" cy="248" r="17" fill="#89C5CC"/><circle id="Oval 2 Copy 15" cx="286" cy="203" r="20" fill="#89C5CC"/></g><g id="Head/Front" transform="translate(101.859 127.148) scale(1.1015625 1.1043955729557917)"><g id="Head/Front/Short 2"><g id="Head"><path id="SKIN" fill-rule="evenodd" clip-rule="evenodd" d="M73.9354 75.2443C80.411 79.1475 86.7736 81.0333 89.7603 80.2635C97.2496 78.333 97.9382 50.9351 92.1433 40.1339C86.3485 29.3328 56.5583 24.625 55.0568 46.0255C54.5356 53.4529 57.6544 60.0814 62.2623 65.4901L54 104H78L73.9354 75.2443Z" fill="#b28b67"/></g><path id="Hair" fill-rule="evenodd" clip-rule="evenodd" d="M60.4181 70.3075C57.4059 56.9065 48.8245 47.7714 50.1351 41.7817C51.4457 35.792 57.1213 34.3321 57.1213 34.3321C57.1213 34.3321 60.0567 22.4572 76.0556 24.2304C92.0546 26.0036 101.819 32.6478 97.6025 47.2679C93.7261 47.2679 89.0465 45.866 82.5755 48.2679C79.4957 49.411 78.17 55.358 78.17 55.358H75.2458C75.2458 55.358 70.9887 48.3006 66.8508 50.1712C62.7128 52.0418 64.9695 59.2586 64.9695 59.2586L63.5291 70.3075H60.4181Z" fill="#4a312c"/></g></g><g id="Lower Body/Sitting" transform="translate(11.5312 333.67) scale(1.1015625 1.1043956549097804)"><g id="Lower Body/Sitting/Baggy Pants"><g id="Seat"><path id="Seat_2" fill-rule="evenodd" clip-rule="evenodd" d="M69 42C60.1634 42 53 49.1634 53 58V150C53 158.837 60.1634 166 69 166H184C192.837 166 200 158.837 200 150V58C200 49.1634 192.837 42 184 42H69ZM85 70C82.7909 70 81 71.7909 81 74V134C81 136.209 82.7909 138 85 138H168C170.209 138 172 136.209 172 134V74C172 71.7909 170.209 70 168 70H85Z" fill="#C5CFD6"/></g><path id="SKIN" fill-rule="evenodd" clip-rule="evenodd" d="M299.159 161C279.443 136.924 266.103 119.075 259.138 107.454C247.213 87.5547 237.453 69.8482 234.373 63.0844C227.028 46.9552 251.282 39.4026 256.771 46.9258C265.079 58.3124 282.822 94.143 310 154.417L299.159 161Z" fill="#b28b67"/><path id="LegLower" fill-rule="evenodd" clip-rule="evenodd" d="M258.758 154L222.065 61.6368C214.217 44.7996 252.116 33.7321 257.883 41.5678C270.977 59.3572 302.099 129.534 306 134.834L258.758 154Z" fill="#009200"/><path id="SKIN" fill-rule="evenodd" clip-rule="evenodd" d="M161.033 135.477C168.181 125.051 194.179 89.9744 208.339 75.4611C212.408 71.2905 216.379 67.2876 220.134 63.5574C231.296 52.4698 253.524 71.1057 242.382 81.2046C214.635 106.355 174.151 140.307 170.769 143.334C166.028 147.577 156.541 142.029 161.033 135.477Z" fill="#b28b67"/><g id="Left [shoe]"><path id="shoe" fill-rule="evenodd" clip-rule="evenodd" d="M165.664 131.185C164.971 130.241 163.63 130.017 162.734 130.771C161.099 132.146 158.748 134.264 157.899 135.734C156.547 138.076 154.733 143.021 154.733 143.021C157.45 144.59 203.578 171.222 203.578 171.222C203.578 171.222 209.116 166.027 205.304 163.157C201.491 160.286 199.012 158.315 199.012 158.315L182.152 135.087C181.821 134.631 181.179 134.538 180.733 134.882L177.23 137.579C177.23 137.579 172.409 137.159 170.035 135.788C168.589 134.953 166.824 132.767 165.664 131.185Z" fill="#E4E4E4"/></g><g id="Right [shoe]"><path id="shoe_2" fill-rule="evenodd" clip-rule="evenodd" d="M293.45 156.284C292.378 155.813 291.104 156.29 290.705 157.391C289.977 159.398 289 162.409 289 164.106C289 166.811 289.901 172 289.901 172C293.039 172 346.303 172 346.303 172C346.303 172 348.502 164.732 343.765 164.152C339.028 163.573 335.895 163.106 335.895 163.106L309.68 151.419C309.165 151.189 308.563 151.43 308.348 151.951L306.663 156.039C306.663 156.039 302.278 158.085 299.537 158.085C297.868 158.085 295.246 157.074 293.45 156.284Z" fill="#E4E4E4"/></g><path id="Leg and Butt" fill-rule="evenodd" clip-rule="evenodd" d="M208.862 66.2501C208.862 66.2501 163.117 58.7976 147.58 56.0581C118.057 50.8524 109.448 34.9653 114.538 0.302229L168.934 0.302229C179.732 3.42038 259.167 38.8717 259.167 38.8717C268.695 43.6015 266.921 57.5475 265.18 62.1421C265.073 62.4232 216.992 144.713 216.992 144.713L172.494 116.365L208.946 69.5904C208.946 69.5904 210.39 66.682 208.862 66.2501Z" fill="#2acd26"/></g></g><g id="Upper Body" transform="translate(35.7656 217.709) scale(1.1015625 1.1043955757018717)"><g id="Upper Body/Pointing Forward"><path id="SKIN" fill-rule="evenodd" clip-rule="evenodd" d="M193.348 23.6899L158.638 42.7003L171.456 56.4577L196.677 33.3653C209.963 29.7037 216.039 27.0251 214.904 25.3294C213.948 23.8997 212.405 23.9494 210.985 23.9951C209.878 24.0307 208.845 24.064 208.22 23.3937C206.794 21.8628 209.515 16.5104 212.315 11.5416C215.114 6.57269 212.121 7.00525 210.409 7.7199C204.807 11.5123 199.12 16.8356 193.348 23.6899ZM228.246 50.3643L213 58.7399L213.868 74.0403C213.868 74.0403 223.743 66.9131 232.238 64.5444C243.07 61.5241 247.453 59.2177 252.746 52.4731C255.578 48.8645 257.982 41.6102 255.286 39.2477C254.252 38.3414 250.399 40.4824 246.468 42.667C243.472 44.3319 240.43 46.022 238.556 46.4078C236.034 46.9272 236.329 43.6574 236.565 41.0446C236.734 39.1697 236.873 37.633 235.918 38.0773C231.455 38.1538 228.246 50.3643 228.246 50.3643Z" fill="#997659"/><g id="Group 3"><path id="Mask" fill-rule="evenodd" clip-rule="evenodd" d="M141.734 38.4654C153.892 38.337 170.104 35.7692 187.403 24.7888L194.196 39.9387C182.264 51.7804 165.486 61.5097 150.816 61.0977C139.255 60.7731 133.347 46.7892 141.734 38.4654Z" fill="#c21b15"/><mask id="mask0_410_5849f12fc37b-e2bd-4312-a182-d9076f6ed1df" style="mask-type:luminance" maskUnits="userSpaceOnUse" x="137" y="24" width="58" height="38" fill="#ffffff"><path id="Mask" fill-rule="evenodd" clip-rule="evenodd" d="M141.734 38.4654C153.892 38.337 170.104 35.7692 187.403 24.7888L194.196 39.9387C182.264 51.7804 165.486 61.5097 150.816 61.0977C139.255 60.7731 133.347 46.7892 141.734 38.4654Z" fill="#ffffff"/></mask><g mask="url(#mask0_410_5849f12fc37b-e2bd-4312-a182-d9076f6ed1df)"/></g><g id="Group 27"><path id="Mask" fill-rule="evenodd" clip-rule="evenodd" d="M108.945 142.259C97.3866 140.752 86.7664 139.367 80.4728 140.606C73.4113 117.673 79.2749 103.234 84.6879 89.9046C87.9502 81.871 91.0489 74.2405 91.0555 65.3966C91.0748 39.6422 111.754 0 114.797 0H115.67H139.783H142.544C143.784 15.9374 149.079 33.193 154.407 50.5596C155.652 54.6153 156.898 58.6769 158.095 62.7293C178.26 67.3065 223.036 51.3734 223.036 51.3734C223.036 51.3734 234.34 74.7586 233.487 84.7171C207.424 98.331 185.087 104.401 166.683 104.802C167.268 115.721 165.939 126.112 161.474 135.606C155.491 148.327 130.576 145.079 108.945 142.259Z" fill="#ff4133"/><mask id="mask1_410_5849f12fc37b-e2bd-4312-a182-d9076f6ed1df" style="mask-type:luminance" maskUnits="userSpaceOnUse" x="77" y="0" width="157" height="145" fill="#ffffff"><path id="Mask_2" fill-rule="evenodd" clip-rule="evenodd" d="M108.945 142.259C97.3866 140.752 86.7664 139.367 80.4728 140.606C73.4113 117.673 79.2749 103.234 84.6879 89.9046C87.9502 81.871 91.0489 74.2405 91.0555 65.3966C91.0748 39.6422 111.754 0 114.797 0H115.67H139.783H142.544C143.784 15.9374 149.079 33.193 154.407 50.5596C155.652 54.6153 156.898 58.6769 158.095 62.7293C178.26 67.3065 223.036 51.3734 223.036 51.3734C223.036 51.3734 234.34 74.7586 233.487 84.7171C207.424 98.331 185.087 104.401 166.683 104.802C167.268 115.721 165.939 126.112 161.474 135.606C155.491 148.327 130.576 145.079 108.945 142.259Z" fill="#ffffff"/></mask><g mask="url(#mask1_410_5849f12fc37b-e2bd-4312-a182-d9076f6ed1df)"/></g></g></g><g id="Bars"><rect id="Rectangle" x="260" y="33" width="110" height="16" rx="4" fill="#2acd26"/><rect id="Rectangle" x="260" y="57" width="70" height="16" rx="4" fill="#C1DEE2"/><rect id="Rectangle_2" x="260" y="81" width="86" height="16" rx="4" fill="#C1DEE2"/></g><g id="Graph"><rect id="Value_4" x="24" y="458" width="6" height="25" rx="3" fill="#42A5FF"/><rect id="Value_5" x="38" y="442" width="6" height="41" rx="3" fill="#42A5FF"/><rect id="Value_6" x="52" y="434" width="6" height="49" rx="3" fill="#42A5FF"/><rect id="Value_7" x="66" y="442" width="6" height="41" rx="3" fill="#42A5FF"/><rect id="Value" x="80" y="426" width="6" height="57" rx="3" fill="#2acd26"/></g><g id="Pie Chart"><path id="Value_8" fill-rule="evenodd" clip-rule="evenodd" d="M324 465.516C324 449.285 337.053 436 353 436V465.516L333.181 487C327.544 481.748 324 474.042 324 465.516Z" fill="#F2F2F2"/><path id="Value_9" fill-rule="evenodd" clip-rule="evenodd" d="M351.892 465H381C381 472.57 377.931 479.664 373.078 484.819C367.741 490.456 360.141 494 351.892 494C344.294 494 337.338 490.942 332 486.108L351.892 465Z" fill="#AFB9C5"/><path id="Value_10" fill-rule="evenodd" clip-rule="evenodd" d="M382 465C382 449.053 368.947 436 353 436V465H382ZM338.5 436L350.1 462.1L324 450.5C326.581 443.734 332.377 438.581 338.5 436Z" fill="#8991DC"/></g><g id="Circles_2"><circle id="Circle" cx="136.5" cy="350.5" r="14.5" fill="#89C5CC"/><circle id="Circle_2" cx="179" cy="267" r="7" fill="#C1DEE2"/><circle id="Circle_3" cx="267" cy="261" r="15" fill="#89C5CC"/></g></g></svg>