<svg viewBox="38.02702702702703 61.31249999999994 325.94594594594594 442.8125000000001" fill="none" xmlns="http://www.w3.org/2000/svg" xmlns:xlink="http://www.w3.org/1999/xlink" overflow="visible" width="325.94594594594594px" height="442.8125000000001px"><g id="Master/Composition/Wireframe"><g id="UI"><g id="Cards"><g id="Group"><g id="Group 7"><rect id="Rectangle 2" x="214.426" y="171.112" width="44.7" height="61.1583" rx="20" fill="#BAEBFF"/><rect id="Rectangle 2 Copy 9" x="214.426" y="383.042" width="44.7" height="80.2703" rx="20" fill="#B8DBE9"/><rect id="Rectangle 2 Copy 8" x="318.3" y="307.869" width="44.7" height="61.1583" rx="20" fill="#B8DBE9"/><rect id="Rectangle 2 Copy" x="266.363" y="171.112" width="44.7" height="89.6139" rx="20" fill="#8AB8F1"/><rect id="Rectangle 2 Copy 4" x="318.3" y="227.598" width="44.7" height="70.5019" rx="20" fill="#B8DBE9"/><rect id="Rectangle 2 Copy 5" x="266.363" y="270.07" width="44.7" height="47.1429" rx="20" fill="#B8DBE9"/><rect id="Rectangle 2 Copy 2" x="318.3" y="171.112" width="44.7" height="47.1429" rx="20" fill="#B8DBE9"/><rect id="Rectangle 2 Copy 6" x="214.426" y="298.525" width="44.7" height="75.1737" rx="20" fill="#8AB8F1"/><rect id="Rectangle 2 Copy 3" x="214.426" y="241.614" width="44.7" height="47.1429" rx="20" fill="#B8DBE9"/><rect id="Rectangle 2 Copy 12" x="318.3" y="434.857" width="44.7" height="47.1429" rx="20" fill="#8AB8F1"/><path id="Rectangle" fill-rule="evenodd" clip-rule="evenodd" d="M214 154.548C214 153.141 215.141 152 216.548 152H230.609C232.016 152 233.157 153.141 233.157 154.548V154.548C233.157 155.956 232.016 157.097 230.609 157.097H216.548C215.141 157.097 214 155.956 214 154.548V154.548Z" fill="#B8DBE9"/><path id="Rectangle Copy" opacity="0.3" fill-rule="evenodd" clip-rule="evenodd" d="M242.523 154.548C242.523 153.141 243.664 152 245.071 152H259.132C260.539 152 261.68 153.141 261.68 154.548V154.548C261.68 155.956 260.539 157.097 259.132 157.097H245.071C243.664 157.097 242.523 155.956 242.523 154.548V154.548Z" fill="#B8DBE9"/><path id="Rectangle Copy 2" opacity="0.3" fill-rule="evenodd" clip-rule="evenodd" d="M270.62 154.548C270.62 153.141 271.761 152 273.168 152H287.229C288.636 152 289.777 153.141 289.777 154.548V154.548C289.777 155.956 288.636 157.097 287.229 157.097H273.168C271.761 157.097 270.62 155.956 270.62 154.548V154.548Z" fill="#B8DBE9"/><path id="Rectangle Copy 3" opacity="0.3" fill-rule="evenodd" clip-rule="evenodd" d="M299.143 154.548C299.143 153.141 300.284 152 301.691 152H315.752C317.159 152 318.3 153.141 318.3 154.548V154.548C318.3 155.956 317.159 157.097 315.752 157.097H301.691C300.284 157.097 299.143 155.956 299.143 154.548V154.548Z" fill="#B8DBE9"/><path id="Rectangle Copy 4" opacity="0.3" fill-rule="evenodd" clip-rule="evenodd" d="M327.24 154.548C327.24 153.141 328.381 152 329.788 152H343.849C345.256 152 346.397 153.141 346.397 154.548V154.548C346.397 155.956 345.256 157.097 343.849 157.097H329.788C328.381 157.097 327.24 155.956 327.24 154.548V154.548Z" fill="#B8DBE9"/></g></g></g><g id="Profile"><g id="Group 6"><path id="Rectangle_2" fill-rule="evenodd" clip-rule="evenodd" d="M89.8882 86.6077C89.8882 73.6092 100.426 63 113.424 63V63C126.422 63 136.96 73.6092 136.96 86.6077V86.6077C136.96 99.6061 126.422 110.215 113.424 110.215V110.215C100.426 110.215 89.8882 99.6061 89.8882 86.6077V86.6077Z" fill="#B8DBE9"/><path id="Shape" fill-rule="evenodd" clip-rule="evenodd" d="M110.482 82.201C110.482 81.5053 111.051 80.9419 111.753 80.9419H115.566C116.268 80.9419 116.837 81.5053 116.837 82.201V82.8305H118.743C119.445 82.8305 120.014 83.3939 120.014 84.0896V91.0145C120.014 91.7101 119.445 92.2736 118.743 92.2736H108.576C107.873 92.2736 107.305 91.7101 107.305 91.0145V84.0896C107.305 83.3939 107.873 82.8305 108.576 82.8305H110.482V82.201ZM117.19 87.316C117.19 85.6237 115.712 84.247 113.895 84.247C112.078 84.247 110.6 85.6237 110.6 87.316C110.6 89.0082 112.078 90.385 113.895 90.385C115.712 90.385 117.19 89.0082 117.19 87.316ZM117.896 84.247C118.286 84.247 118.602 84.5643 118.602 84.9552C118.602 85.3461 118.286 85.6634 117.896 85.6634C117.506 85.6634 117.19 85.3461 117.19 84.9552C117.19 84.5643 117.506 84.247 117.896 84.247ZM112.012 87.0799C112.012 86.0368 112.855 85.1913 113.895 85.1913C114.935 85.1913 115.778 86.0368 115.778 87.0799C115.778 88.1229 114.935 88.9685 113.895 88.9685C112.855 88.9685 112.012 88.1229 112.012 87.0799Z" fill="#70A2DE"/><path id="Rectangle_3" fill-rule="evenodd" clip-rule="evenodd" d="M75.894 126.592C75.894 125.3 76.9415 124.252 78.2335 124.252H92.3196C93.6117 124.252 94.6591 125.3 94.6591 126.592V126.592C94.6591 127.884 93.6117 128.931 92.3196 128.931H78.2335C76.9415 128.931 75.894 127.884 75.894 126.592V126.592Z" fill="#8AB8F1"/><path id="Rectangle Copy_2" opacity="0.3" fill-rule="evenodd" clip-rule="evenodd" d="M104.042 126.592C104.042 125.3 105.089 124.252 106.381 124.252H120.467C121.759 124.252 122.807 125.3 122.807 126.592V126.592C122.807 127.884 121.759 128.931 120.467 128.931H106.381C105.089 128.931 104.042 127.884 104.042 126.592V126.592Z" fill="#B8DBE9"/><path id="Rectangle Copy 2_2" opacity="0.3" fill-rule="evenodd" clip-rule="evenodd" d="M132.189 126.592C132.189 125.3 133.237 124.252 134.529 124.252H148.615C149.907 124.252 150.954 125.3 150.954 126.592V126.592C150.954 127.884 149.907 128.931 148.615 128.931H134.529C133.237 128.931 132.189 127.884 132.189 126.592V126.592Z" fill="#B8DBE9"/><path id="Rectangle_4" fill-rule="evenodd" clip-rule="evenodd" d="M172.905 178.507C172.905 177.203 173.961 176.147 175.265 176.147H184.64C185.943 176.147 187 177.203 187 178.507V178.507C187 179.81 185.943 180.867 184.64 180.867H175.265C173.961 180.867 172.905 179.81 172.905 178.507V178.507Z" fill="#B8DBE9"/><path id="Rectangle_5" fill-rule="evenodd" clip-rule="evenodd" d="M168.206 192.667C168.206 191.364 169.263 190.307 170.566 190.307H184.64C185.943 190.307 187 191.364 187 192.667V192.667C187 193.971 185.943 195.027 184.64 195.027H170.566C169.263 195.027 168.206 193.971 168.206 192.667V192.667Z" fill="#B8DBE9"/><path id="Rectangle_6" fill-rule="evenodd" clip-rule="evenodd" d="M177.603 206.828C177.603 205.524 178.66 204.468 179.963 204.468H184.64C185.943 204.468 187 205.524 187 206.828V206.828C187 208.131 185.943 209.188 184.64 209.188H179.963C178.66 209.188 177.603 208.131 177.603 206.828V206.828Z" fill="#B8DBE9"/><path id="Rectangle_7" fill-rule="evenodd" clip-rule="evenodd" d="M182.302 220.988C182.302 219.691 183.353 218.628 184.651 218.628V218.628C185.948 218.628 187 219.691 187 220.988V220.988C187 222.286 185.948 223.348 184.651 223.348V223.348C183.353 223.348 182.302 222.286 182.302 220.988V220.988Z" fill="#B8DBE9"/><path id="Rectangle_8" fill-rule="evenodd" clip-rule="evenodd" d="M172.905 235.149C172.905 233.845 173.961 232.789 175.265 232.789H184.64C185.943 232.789 187 233.845 187 235.149V235.149C187 236.452 185.943 237.509 184.64 237.509H175.265C173.961 237.509 172.905 236.452 172.905 235.149V235.149Z" fill="#B8DBE9"/><path id="Rectangle_9" fill-rule="evenodd" clip-rule="evenodd" d="M177.603 249.309C177.603 248.006 178.66 246.949 179.963 246.949H184.64C185.943 246.949 187 248.006 187 249.309V249.309C187 250.612 185.943 251.669 184.64 251.669H179.963C178.66 251.669 177.603 250.612 177.603 249.309V249.309Z" fill="#B8DBE9"/><path id="Rectangle_10" fill-rule="evenodd" clip-rule="evenodd" d="M182.302 263.47C182.302 262.172 183.353 261.11 184.651 261.11V261.11C185.948 261.11 187 262.172 187 263.47V263.47C187 264.767 185.948 265.83 184.651 265.83V265.83C183.353 265.83 182.302 264.767 182.302 263.47V263.47Z" fill="#8AB8F1"/><path id="Rectangle_11" fill-rule="evenodd" clip-rule="evenodd" d="M39 320.112C39 318.808 40.0566 317.751 41.3601 317.751H121.211C122.515 317.751 123.571 318.808 123.571 320.112V320.112C123.571 321.415 122.515 322.472 121.211 322.472H41.3601C40.0566 322.472 39 321.415 39 320.112V320.112Z" fill="#B8DBE9"/><path id="Rectangle_12" fill-rule="evenodd" clip-rule="evenodd" d="M177.603 277.63C177.603 276.327 178.66 275.27 179.963 275.27H184.64C185.943 275.27 187 276.327 187 277.63V277.63C187 278.934 185.943 279.99 184.64 279.99H179.963C178.66 279.99 177.603 278.934 177.603 277.63V277.63Z" fill="#8AB8F1"/><path id="Rectangle_13" fill-rule="evenodd" clip-rule="evenodd" d="M172.905 291.79C172.905 290.487 173.961 289.43 175.265 289.43H184.64C185.943 289.43 187 290.487 187 291.79V291.79C187 293.094 185.943 294.151 184.64 294.151H175.265C173.961 294.151 172.905 293.094 172.905 291.79V291.79Z" fill="#B8DBE9"/><path id="Rectangle_14" fill-rule="evenodd" clip-rule="evenodd" d="M39 305.951C39 304.648 40.0566 303.591 41.3601 303.591H74.2272C75.5307 303.591 76.5873 304.648 76.5873 305.951V305.951C76.5873 307.255 75.5307 308.311 74.2272 308.311H41.3601C40.0566 308.311 39 307.255 39 305.951V305.951Z" fill="#BAEBFF"/><path id="Rectangle_15" fill-rule="evenodd" clip-rule="evenodd" d="M39 291.79C39 290.487 40.0566 289.43 41.3601 289.43H60.132C61.4354 289.43 62.4921 290.487 62.4921 291.79V291.79C62.4921 293.094 61.4354 294.151 60.132 294.151H41.3601C40.0566 294.151 39 293.094 39 291.79V291.79Z" fill="#8AB8F1"/><path id="Rectangle_16" fill-rule="evenodd" clip-rule="evenodd" d="M39 277.63C39 276.327 40.0566 275.27 41.3601 275.27H55.4336C56.737 275.27 57.7937 276.327 57.7937 277.63V277.63C57.7937 278.934 56.737 279.99 55.4336 279.99H41.3601C40.0566 279.99 39 278.934 39 277.63V277.63Z" fill="#B8DBE9"/><path id="Rectangle_17" fill-rule="evenodd" clip-rule="evenodd" d="M39 206.828C39 205.524 40.0566 204.468 41.3601 204.468H74.2272C75.5307 204.468 76.5873 205.524 76.5873 206.828V206.828C76.5873 208.131 75.5307 209.188 74.2272 209.188H41.3601C40.0566 209.188 39 208.131 39 206.828V206.828Z" fill="#B8DBE9"/><path id="Rectangle_18" fill-rule="evenodd" clip-rule="evenodd" d="M39 192.667C39 191.364 40.0566 190.307 41.3601 190.307H93.0209C94.3243 190.307 95.381 191.364 95.381 192.667V192.667C95.381 193.971 94.3243 195.027 93.0209 195.027H41.3601C40.0566 195.027 39 193.971 39 192.667V192.667Z" fill="#BAEBFF"/><path id="Rectangle_19" fill-rule="evenodd" clip-rule="evenodd" d="M39 178.507C39 177.203 40.0566 176.147 41.3601 176.147H60.132C61.4354 176.147 62.4921 177.203 62.4921 178.507V178.507C62.4921 179.81 61.4354 180.867 60.132 180.867H41.3601C40.0566 180.867 39 179.81 39 178.507V178.507Z" fill="#B8DBE9"/><rect id="Rectangle 2_2" x="39" y="148.073" width="148" height="18.716" rx="9.35799" fill="#8AB8F1"/><rect id="Rectangle 2_3" x="39" y="361.18" width="68.2751" height="23.8203" rx="11.9102" fill="#B8DBE9"/></g></g></g><g id="Character"><g id="Head/Front" transform="rotate(-27 69.7224 108.199) translate(69.7224 108.199) scale(1.0808823529411764 1.0288461538461537)"><g id="Head/Front/Wavy"><g id="Head"><path id="SKIN" fill-rule="evenodd" clip-rule="evenodd" d="M92.1433 40.1339C97.9382 50.9351 97.2496 78.333 89.7603 80.2635C86.7737 81.0333 80.4113 79.1476 73.9359 75.2446L78 104H54L62.2616 65.4893C57.6541 60.0807 54.5357 53.4525 55.0568 46.0255C56.5583 24.625 86.3485 29.3328 92.1433 40.1339Z" fill="#d4a181"/></g><path id="hair" fill-rule="evenodd" clip-rule="evenodd" d="M94.4091 44.9836C94.1714 43.5836 93.5904 42.0288 93.1216 40.7043C92.5172 38.9967 91.6025 37.4571 90.5959 36.0061C88.7009 33.2744 86.4276 30.8075 83.9176 28.7601C79.3328 25.0202 73.4966 22.8631 67.7574 23.5636C64.8597 23.9173 62.0468 25.0226 59.6525 26.8624C57.4894 28.5246 55.4087 30.9716 52.6077 31.1474C49.56 31.3385 46.7662 28.6485 44.322 26.9871C41.566 25.1141 38.6342 23.7493 35.4132 23.2188C30.0173 22.3304 24.9482 24.1534 21.2294 28.5805C17.2722 33.2916 14.3955 40.2003 16.9943 46.4425C17.4773 47.6028 18.0988 48.581 18.9907 49.3918C19.8086 50.1353 21.0579 50.9263 21.3895 52.1142C21.7418 53.3769 20.6895 55.006 20.2815 56.1454C19.6969 57.7778 19.2169 59.4913 19.3876 61.2656C19.6679 64.1795 21.4991 66.9612 23.4327 68.8765C25.4004 70.8254 27.8222 71.943 30.4089 72.4582C32.1361 72.8022 33.9013 72.992 35.6567 72.8628C36.5281 72.7988 37.2971 72.5567 38.1414 72.3642C38.9625 72.1769 39.4213 72.395 40.1179 72.8453C43.354 74.9373 46.8335 75.7467 50.5701 75.4356C53.7237 75.1729 57.3584 74.4087 59.931 72.248C62.788 69.8482 62.7311 66.5391 62.0588 63.0035C62.7711 63.3565 64.7416 63.5751 63.5641 62.1681C63.0976 61.6108 62.2163 61.384 61.6178 61.0563C60.9209 60.6747 60.2132 60.1814 59.6721 59.5589C57.4869 57.0454 59.6939 51.93 62.4404 51.0871C66.5209 49.8347 67.4345 55.6055 70.3474 57.0982C72.0222 57.9565 73.7742 56.7834 75.029 55.5855C76.7099 53.9809 77.8554 51.8551 78.8445 49.6918C79.6592 47.9103 80.4173 46.1038 81.2477 44.3311C81.6354 43.5033 82.9778 41.1632 82.3037 40.2272C85.2264 39.6444 88.4816 40.859 90.9987 42.4517C92.0391 43.1101 92.8322 43.8361 93.3872 44.9985C93.5061 45.2475 93.7649 45.9879 94.0899 46.0183C94.6949 46.0748 94.4688 45.3354 94.4091 44.9836" fill="#e8e1e1"/></g></g><g id="Lower Body/Standing" transform="translate(44 252) scale(1.08 1.0376569037656904)"><g id="Lower Body/Standing/Baggy Pants"><path id="SKIN" fill-rule="evenodd" clip-rule="evenodd" d="M134 0L183.082 124.227L216.001 229.25H229L176.674 0L134 0Z" fill="#d4a181"/><path id="SKIN" fill-rule="evenodd" clip-rule="evenodd" d="M124.117 0C123.594 43.6542 115.972 102.427 114.754 105.149C113.536 107.87 30.6758 174.358 30.6758 174.358L39.629 183.939C39.629 183.939 137.397 126.934 141.921 119.331C146.445 111.728 161.174 41.7631 173 0H124.117Z" fill="#d4a181"/><g id="Left [Shoe]"><path id="shoe" fill-rule="evenodd" clip-rule="evenodd" d="M32.116 172.564C31.7884 171.44 30.604 170.771 29.5042 171.173C27.4981 171.906 24.5641 173.092 23.2642 174.183C21.1921 175.922 17.7961 179.948 17.7961 179.948C19.8131 182.352 54.0505 223.154 54.0505 223.154C54.0505 223.154 61.0315 220.166 58.4307 216.165C55.8299 212.164 54.1738 209.464 54.1738 209.464L46.2757 181.87C46.1206 181.328 45.549 181.022 45.012 181.192L40.7975 182.529C40.7975 182.529 36.4116 180.485 34.6494 178.384C33.5766 177.106 32.665 174.448 32.116 172.564Z" fill="#E4E4E4"/></g><g id="Right {Shoe]"><path id="shoe_2" fill-rule="evenodd" clip-rule="evenodd" d="M213.45 223.284C212.378 222.813 211.104 223.29 210.705 224.391C209.977 226.398 209 229.409 209 231.106C209 233.811 209.901 239 209.901 239C213.039 239 266.303 239 266.303 239C266.303 239 268.502 231.732 263.765 231.152C259.028 230.573 255.895 230.106 255.895 230.106L229.68 218.419C229.165 218.189 228.563 218.43 228.348 218.951L226.663 223.039C226.663 223.039 222.278 225.085 219.537 225.085C217.868 225.085 215.246 224.074 213.45 223.284Z" fill="#E4E4E4"/></g><path id="Pant" fill-rule="evenodd" clip-rule="evenodd" d="M167 218.433L228.804 211.725L179 0H127.644L167 218.433Z" fill="#009400"/><path id="Pant" fill-rule="evenodd" clip-rule="evenodd" d="M43.46 158.9L84 206.886C84 206.886 148.05 136.932 158.683 115.596C169.315 94.26 177.799 0 177.799 0H115.478C115.478 0 110.844 82.9258 109.231 86.7848C107.617 90.6437 43.46 158.9 43.46 158.9Z" fill="#1ccf17"/></g></g><g id="Upper Body" transform="rotate(-14 40.7686 185.373) translate(40.7686 185.373) scale(1.08203125 1.032085561497326)"><g id="Upper Body/Jacket"><path id="SKIN" fill-rule="evenodd" clip-rule="evenodd" d="M222.372 116.758L194.044 89.1225L184.636 105.402L214.093 122.77C221.479 134.405 225.817 139.432 227.107 137.852C228.195 136.519 227.696 135.058 227.237 133.713C226.879 132.665 226.546 131.687 227.004 130.894C228.051 129.082 233.965 130.119 239.535 131.344C245.106 132.568 243.817 129.832 242.633 128.404C237.368 124.155 230.615 120.273 222.372 116.758ZM55.398 156.908C58.3285 150.963 68.308 93.0199 68.308 93.0199L89.2054 93.1021C89.2054 93.1021 69.8506 155.583 68.308 159.406C66.3041 164.372 69.708 171.587 72.0162 176.48C72.3733 177.237 72.7041 177.938 72.9847 178.567C69.782 180 68.2435 178.268 66.6216 176.442C64.7896 174.379 62.8512 172.197 58.288 174.319C56.525 175.14 54.8568 176.109 53.2269 177.057C47.5969 180.329 42.4249 183.336 35.3891 178.994C34.2737 178.306 33.0514 175.715 36.0047 173.69C43.3624 168.645 53.9654 159.815 55.398 156.908Z" fill="#d4a181"/><path id="Coat Back" fill-rule="evenodd" clip-rule="evenodd" d="M127.695 5.33202L136.342 3.84886C151.23 41.0391 177.222 74.8311 214.318 105.225L186.286 139.281C149.194 96.0046 126.33 51.3548 127.695 5.33202Z" fill="#c21b15"/><path id="Shirt" fill-rule="evenodd" clip-rule="evenodd" d="M90 114H167C167 114 140.241 48.9377 140.241 3.46073L117.014 0C98.7599 29.3584 93.6048 65.5046 90 114Z" fill="#C7D1D9"/><path id="Coat Front" fill-rule="evenodd" clip-rule="evenodd" d="M55 147C63.4209 51.9959 116.504 0 116.504 0L116.522 0.0164189C116.525 0.010945 116.529 0.00547202 116.532 0H118.048C120.769 0.0937097 126.338 0.337673 126.338 0.337673L131.95 16.3769C132.841 45.7102 142.351 134.606 142.351 134.606H91.9499C92.0356 138.682 92.2255 142.815 92.5306 147H55Z" fill="#ff4133"/><path id="Shade" fill-rule="evenodd" clip-rule="evenodd" d="M91.9584 135C91.5561 117.25 93.1308 100.584 95.7576 85.5019C97.1315 103.399 100.003 124.933 106 135H91.9584Z" fill="black" fill-opacity="0.1"/><path id="Light" fill-rule="evenodd" clip-rule="evenodd" d="M103.111 104L128 92.4293V104H103.111Z" fill="white" fill-opacity="0.2"/></g></g></g><g id="Foreground"><rect id="Rectangle 2 Copy 7" opacity="0.905855" x="267" y="326" width="44" height="61" rx="20" fill="#B8DBE9"/><rect id="Rectangle 2 Copy 10" opacity="0.865792" x="267" y="397" width="44" height="61" rx="20" fill="#6DD2FC"/><rect id="Rectangle 2 Copy 11" x="319" y="378" width="44" height="47" rx="20" fill="#BAEBFF"/><path id="Rectangle_20" fill-rule="evenodd" clip-rule="evenodd" d="M182 319.5C182 318.119 183.119 317 184.5 317V317C185.881 317 187 318.119 187 319.5V319.5C187 320.881 185.881 322 184.5 322V322C183.119 322 182 320.881 182 319.5V319.5Z" fill="#B8DBE9"/><path id="Rectangle_21" fill-rule="evenodd" clip-rule="evenodd" d="M173 305.5C173 304.119 174.119 303 175.5 303H184.5C185.881 303 187 304.119 187 305.5V305.5C187 306.881 185.881 308 184.5 308H175.5C174.119 308 173 306.881 173 305.5V305.5Z" fill="#B8DBE9"/><path id="Rectangle_22" opacity="0.890044" fill-rule="evenodd" clip-rule="evenodd" d="M39 263.5C39 262.119 40.1193 261 41.5 261H120.5C121.881 261 123 262.119 123 263.5V263.5C123 264.881 121.881 266 120.5 266H41.5C40.1193 266 39 264.881 39 263.5V263.5Z" fill="#B8DBE9"/><path id="Rectangle_23" fill-rule="evenodd" clip-rule="evenodd" d="M39 249.5C39 248.119 40.1193 247 41.5 247H69.5C70.8807 247 72 248.119 72 249.5V249.5C72 250.881 70.8807 252 69.5 252H41.5C40.1193 252 39 250.881 39 249.5V249.5Z" fill="#B8DBE9"/><path id="Rectangle_24" fill-rule="evenodd" clip-rule="evenodd" d="M39 234.5C39 233.119 40.1193 232 41.5 232H55.5C56.8807 232 58 233.119 58 234.5V234.5C58 235.881 56.8807 237 55.5 237H41.5C40.1193 237 39 235.881 39 234.5V234.5Z" fill="#B8DBE9"/><path id="Rectangle_25" opacity="0.890044" fill-rule="evenodd" clip-rule="evenodd" d="M39 220.5C39 219.119 40.1193 218 41.5 218H106.5C107.881 218 109 219.119 109 220.5V220.5C109 221.881 107.881 223 106.5 223H41.5C40.1193 223 39 221.881 39 220.5V220.5Z" fill="#8AB8F1"/><rect id="Rectangle 2_4" opacity="0.908343" x="119" y="361" width="68" height="24" rx="12" fill="#77D6FE"/></g></g></svg>